<?xml version="1.0" encoding="utf-8" standalone="no"?>
<!DOCTYPE svg PUBLIC "-//W3C//DTD SVG 1.1//EN"
  "http://www.w3.org/Graphics/SVG/1.1/DTD/svg11.dtd">
<svg xmlns:xlink="http://www.w3.org/1999/xlink" width="715.129688pt" height="362.099375pt" viewBox="0 0 715.129688 362.099375" xmlns="http://www.w3.org/2000/svg" version="1.1">
 <metadata>
  <rdf:RDF xmlns:dc="http://purl.org/dc/elements/1.1/" xmlns:cc="http://creativecommons.org/ns#" xmlns:rdf="http://www.w3.org/1999/02/22-rdf-syntax-ns#">
   <cc:Work>
    <dc:type rdf:resource="http://purl.org/dc/dcmitype/StillImage"/>
    <dc:date>2024-10-06T11:10:25.697858</dc:date>
    <dc:format>image/svg+xml</dc:format>
    <dc:creator>
     <cc:Agent>
      <dc:title>Matplotlib v3.9.2, https://matplotlib.org/</dc:title>
     </cc:Agent>
    </dc:creator>
   </cc:Work>
  </rdf:RDF>
 </metadata>
 <defs>
  <style type="text/css">*{stroke-linejoin: round; stroke-linecap: butt}</style>
 </defs>
 <g id="figure_1">
  <g id="patch_1">
   <path d="M 0 362.099375 
L 715.129688 362.099375 
L 715.129688 0 
L 0 0 
L 0 362.099375 
z
" style="fill: none"/>
  </g>
  <g id="axes_1">
   <g id="patch_2">
    <path d="M 45.529688 332.64 
L 715.129688 332.64 
L 715.129688 0 
L 45.529688 0 
L 45.529688 332.64 
z
" style="fill: none"/>
   </g>
   <g id="matplotlib.axis_1">
    <g id="xtick_1">
     <g id="line2d_1">
      <defs>
       <path id="m2ac781463f" d="M 0 0 
L 0 3.5 
" style="stroke: #000000; stroke-width: 0.8"/>
      </defs>
      <g>
       <use xlink:href="#m2ac781463f" x="75.966051" y="332.64" style="stroke: #000000; stroke-width: 0.8"/>
      </g>
     </g>
     <g id="text_1">
      <!-- Feb -->
      <g transform="translate(66.666051 347.369687) scale(0.1 -0.1)">
       <defs>
        <path id="MonaspiceXeNFM-Regular-46" d="M 211 0 
L 2054 0 
L 2054 323 
L 1254 499 
L 1254 2022 
L 2234 2022 
L 2426 1334 
L 2707 1334 
L 2707 3126 
L 2426 3126 
L 2230 2419 
L 1254 2419 
L 1254 4234 
L 2976 4234 
L 3296 3347 
L 3699 3347 
L 3510 4672 
L 211 4672 
L 211 4349 
L 643 4173 
L 643 499 
L 211 323 
L 211 0 
z
" transform="scale(0.015625)"/>
        <path id="MonaspiceXeNFM-Regular-65" d="M 2128 -77 
C 2570 -77 2973 26 3283 170 
L 3482 893 
L 3123 979 
L 3050 829 
C 2896 474 2605 355 2166 355 
C 1424 355 995 870 982 1654 
L 3549 1654 
L 3549 1872 
C 3549 2899 2973 3389 2125 3389 
C 1091 3389 355 2726 355 1622 
C 355 534 976 -77 2128 -77 
z
M 1011 2029 
C 1110 2627 1494 2944 2067 2944 
C 2586 2944 2934 2618 2941 2029 
L 1011 2029 
z
" transform="scale(0.015625)"/>
        <path id="MonaspiceXeNFM-Regular-62" d="M 1888 -74 
C 3046 -74 3770 637 3770 1795 
C 3770 2707 3322 3382 2435 3382 
C 1946 3382 1571 3178 1293 2970 
L 1293 4909 
L 1210 4947 
L 170 4749 
L 170 4390 
L 730 4304 
L 730 160 
C 1024 42 1421 -74 1888 -74 
z
M 1328 432 
L 1328 2682 
C 1597 2813 1904 2912 2214 2912 
C 2867 2912 3139 2451 3139 1760 
C 3139 794 2608 362 1872 362 
C 1664 362 1482 390 1328 432 
z
" transform="scale(0.015625)"/>
       </defs>
       <use xlink:href="#MonaspiceXeNFM-Regular-46"/>
       <use xlink:href="#MonaspiceXeNFM-Regular-65" x="62.000015"/>
       <use xlink:href="#MonaspiceXeNFM-Regular-62" x="124.000031"/>
      </g>
     </g>
    </g>
    <g id="xtick_2">
     <g id="line2d_2">
      <g>
       <use xlink:href="#m2ac781463f" x="147.436055" y="332.64" style="stroke: #000000; stroke-width: 0.8"/>
      </g>
     </g>
     <g id="text_2">
      <!-- Mar -->
      <g transform="translate(138.136055 347.369687) scale(0.1 -0.1)">
       <defs>
        <path id="MonaspiceXeNFM-Regular-4d" d="M 198 0 
L 1507 0 
L 1507 323 
L 1030 506 
L 1030 3584 
L 1072 3584 
L 1798 1248 
L 2042 1248 
L 2813 3584 
L 2851 3584 
L 2851 502 
L 2403 326 
L 2403 3 
L 3770 3 
L 3770 326 
L 3395 496 
L 3395 4170 
L 3779 4352 
L 3779 4672 
L 2752 4672 
L 2022 2358 
L 1981 2358 
L 1280 4672 
L 189 4672 
L 189 4349 
L 573 4163 
L 573 493 
L 198 323 
L 198 0 
z
" transform="scale(0.015625)"/>
        <path id="MonaspiceXeNFM-Regular-61" d="M 2698 -38 
L 2765 -38 
L 3802 205 
L 3802 560 
L 3261 640 
L 3261 2294 
C 3261 3117 2858 3389 2006 3389 
C 1443 3389 1037 3270 707 3133 
L 573 2413 
L 931 2323 
L 998 2477 
C 1142 2816 1421 2973 1872 2976 
C 2339 2979 2656 2829 2656 2275 
L 2656 1955 
C 1379 1904 387 1686 387 816 
C 387 246 829 -74 1421 -74 
C 1901 -74 2355 160 2698 387 
L 2698 -38 
z
M 1053 886 
C 1053 1462 1894 1590 2656 1600 
L 2656 688 
C 2339 490 2010 381 1686 381 
C 1286 381 1053 582 1053 886 
z
" transform="scale(0.015625)"/>
        <path id="MonaspiceXeNFM-Regular-72" d="M 426 0 
L 2614 0 
L 2614 323 
L 1674 557 
L 1674 2592 
C 1862 2717 2102 2829 2406 2829 
C 2669 2829 2931 2736 3117 2378 
L 3226 2166 
L 3514 2240 
L 3296 3254 
C 3123 3338 2928 3389 2704 3389 
C 2211 3389 1869 3136 1613 2851 
L 1613 3334 
L 1526 3373 
L 426 3133 
L 426 2778 
L 1075 2688 
L 1075 547 
L 426 323 
L 426 0 
z
" transform="scale(0.015625)"/>
       </defs>
       <use xlink:href="#MonaspiceXeNFM-Regular-4d"/>
       <use xlink:href="#MonaspiceXeNFM-Regular-61" x="62.000015"/>
       <use xlink:href="#MonaspiceXeNFM-Regular-72" x="124.000031"/>
      </g>
     </g>
    </g>
    <g id="xtick_3">
     <g id="line2d_3">
      <g>
       <use xlink:href="#m2ac781463f" x="223.835024" y="332.64" style="stroke: #000000; stroke-width: 0.8"/>
      </g>
     </g>
     <g id="text_3">
      <!-- Apr -->
      <g transform="translate(214.535024 347.369687) scale(0.1 -0.1)">
       <defs>
        <path id="MonaspiceXeNFM-Regular-41" d="M 134 0 
L 1501 0 
L 1501 323 
L 1018 506 
L 1229 1318 
L 2602 1318 
L 2819 490 
L 2384 326 
L 2384 3 
L 3834 3 
L 3834 326 
L 3450 525 
L 2310 4672 
L 1686 4672 
L 515 522 
L 134 323 
L 134 0 
z
M 1338 1741 
L 1901 3894 
L 1930 3894 
L 2493 1741 
L 1338 1741 
z
" transform="scale(0.015625)"/>
        <path id="MonaspiceXeNFM-Regular-70" d="M 262 -1280 
L 1936 -1280 
L 1936 -957 
L 1293 -771 
L 1293 -3 
C 1475 -45 1670 -74 1885 -74 
C 3069 -74 3750 656 3750 1802 
C 3750 2726 3302 3382 2403 3382 
C 1914 3382 1536 3184 1258 2979 
L 1258 3334 
L 1174 3373 
L 134 3133 
L 134 2778 
L 694 2691 
L 694 -784 
L 262 -957 
L 262 -1280 
z
M 1293 454 
L 1293 2672 
C 1562 2806 1872 2912 2198 2912 
C 2842 2912 3123 2474 3123 1757 
C 3123 813 2621 362 1885 362 
C 1667 362 1475 397 1293 454 
z
" transform="scale(0.015625)"/>
       </defs>
       <use xlink:href="#MonaspiceXeNFM-Regular-41"/>
       <use xlink:href="#MonaspiceXeNFM-Regular-70" x="62.000015"/>
       <use xlink:href="#MonaspiceXeNFM-Regular-72" x="124.000031"/>
      </g>
     </g>
    </g>
    <g id="xtick_4">
     <g id="line2d_4">
      <g>
       <use xlink:href="#m2ac781463f" x="297.769511" y="332.64" style="stroke: #000000; stroke-width: 0.8"/>
      </g>
     </g>
     <g id="text_4">
      <!-- May -->
      <g transform="translate(288.469511 347.254063) scale(0.1 -0.1)">
       <defs>
        <path id="MonaspiceXeNFM-Regular-79" d="M 1062 -1354 
C 1667 -1354 1952 -864 2224 -118 
L 3261 2800 
L 3709 2989 
L 3709 3312 
L 2288 3312 
L 2288 2989 
L 2739 2806 
L 2051 701 
L 2010 701 
L 1325 2835 
L 1706 2989 
L 1706 3312 
L 256 3312 
L 256 2989 
L 707 2806 
L 1718 -51 
C 1552 -544 1392 -851 1078 -851 
C 835 -851 714 -707 630 -467 
L 554 -237 
L 195 -326 
L 371 -1251 
C 576 -1312 790 -1354 1062 -1354 
z
" transform="scale(0.015625)"/>
       </defs>
       <use xlink:href="#MonaspiceXeNFM-Regular-4d"/>
       <use xlink:href="#MonaspiceXeNFM-Regular-61" x="62.000015"/>
       <use xlink:href="#MonaspiceXeNFM-Regular-79" x="124.000031"/>
      </g>
     </g>
    </g>
    <g id="xtick_5">
     <g id="line2d_5">
      <g>
       <use xlink:href="#m2ac781463f" x="374.16848" y="332.64" style="stroke: #000000; stroke-width: 0.8"/>
      </g>
     </g>
     <g id="text_5">
      <!-- Jun -->
      <g transform="translate(364.86848 347.369687) scale(0.1 -0.1)">
       <defs>
        <path id="MonaspiceXeNFM-Regular-4a" d="M 1798 -74 
C 2678 -74 3299 336 3299 1357 
L 3299 4672 
L 1008 4672 
L 1008 4288 
L 2685 4147 
L 2685 1258 
C 2685 595 2301 342 1814 342 
C 1331 342 1075 598 925 1043 
L 749 1549 
L 355 1462 
L 624 195 
C 938 54 1318 -74 1798 -74 
z
" transform="scale(0.015625)"/>
        <path id="MonaspiceXeNFM-Regular-75" d="M 1517 -77 
C 1894 -77 2278 80 2701 349 
L 2701 -26 
L 2765 -38 
L 3821 202 
L 3821 557 
L 3261 656 
L 3261 3338 
L 3178 3376 
L 2118 3136 
L 2118 2778 
L 2659 2701 
L 2659 669 
C 2323 480 2016 410 1795 410 
C 1514 410 1302 547 1302 954 
L 1302 3334 
L 1226 3373 
L 166 3133 
L 166 2774 
L 707 2694 
L 707 829 
C 707 234 966 -77 1517 -77 
z
" transform="scale(0.015625)"/>
        <path id="MonaspiceXeNFM-Regular-6e" d="M 2352 0 
L 3802 0 
L 3802 323 
L 3379 493 
L 3379 2483 
C 3379 3078 3117 3389 2570 3389 
C 2195 3389 1811 3235 1392 2970 
L 1392 3338 
L 1309 3373 
L 272 3133 
L 272 2778 
L 832 2691 
L 832 499 
L 400 323 
L 400 0 
L 1850 0 
L 1850 323 
L 1427 493 
L 1427 2646 
C 1770 2835 2070 2906 2291 2906 
C 2573 2906 2784 2765 2784 2358 
L 2784 499 
L 2352 323 
L 2352 0 
z
" transform="scale(0.015625)"/>
       </defs>
       <use xlink:href="#MonaspiceXeNFM-Regular-4a"/>
       <use xlink:href="#MonaspiceXeNFM-Regular-75" x="62.000015"/>
       <use xlink:href="#MonaspiceXeNFM-Regular-6e" x="124.000031"/>
      </g>
     </g>
    </g>
    <g id="xtick_6">
     <g id="line2d_6">
      <g>
       <use xlink:href="#m2ac781463f" x="448.102967" y="332.64" style="stroke: #000000; stroke-width: 0.8"/>
      </g>
     </g>
     <g id="text_6">
      <!-- Jul -->
      <g transform="translate(438.802967 347.369687) scale(0.1 -0.1)">
       <defs>
        <path id="MonaspiceXeNFM-Regular-6c" d="M 461 0 
L 3562 0 
L 3562 323 
L 2310 512 
L 2310 4909 
L 2224 4947 
L 461 4704 
L 461 4381 
L 1712 4294 
L 1712 512 
L 461 323 
L 461 0 
z
" transform="scale(0.015625)"/>
       </defs>
       <use xlink:href="#MonaspiceXeNFM-Regular-4a"/>
       <use xlink:href="#MonaspiceXeNFM-Regular-75" x="62.000015"/>
       <use xlink:href="#MonaspiceXeNFM-Regular-6c" x="124.000031"/>
      </g>
     </g>
    </g>
    <g id="xtick_7">
     <g id="line2d_7">
      <g>
       <use xlink:href="#m2ac781463f" x="524.501936" y="332.64" style="stroke: #000000; stroke-width: 0.8"/>
      </g>
     </g>
     <g id="text_7">
      <!-- Aug -->
      <g transform="translate(515.201936 347.254063) scale(0.1 -0.1)">
       <defs>
        <path id="MonaspiceXeNFM-Regular-67" d="M 1837 -1354 
C 2790 -1354 3638 -1018 3638 -218 
C 3638 333 3251 541 2650 541 
L 1101 541 
L 1392 1194 
C 1549 1152 1715 1133 1888 1133 
C 2630 1133 3280 1510 3280 2262 
C 3280 2515 3206 2723 3082 2890 
L 3603 2842 
L 3766 3187 
L 3600 3366 
L 2685 3216 
C 2458 3334 2179 3392 1888 3392 
C 1146 3392 499 3014 499 2262 
C 499 1830 710 1523 1030 1341 
L 403 109 
L 490 0 
L 842 0 
L 310 -912 
L 374 -1069 
C 742 -1216 1210 -1354 1837 -1354 
z
M 1034 -390 
L 1206 0 
L 2419 0 
C 2826 0 3050 -122 3050 -384 
C 3050 -803 2486 -947 1846 -947 
C 1216 -947 893 -797 1034 -390 
z
M 1117 2262 
C 1117 2752 1459 3002 1882 3002 
C 2307 3002 2659 2752 2659 2262 
C 2659 1770 2307 1520 1882 1520 
C 1459 1520 1117 1770 1117 2262 
z
" transform="scale(0.015625)"/>
       </defs>
       <use xlink:href="#MonaspiceXeNFM-Regular-41"/>
       <use xlink:href="#MonaspiceXeNFM-Regular-75" x="62.000015"/>
       <use xlink:href="#MonaspiceXeNFM-Regular-67" x="124.000031"/>
      </g>
     </g>
    </g>
    <g id="xtick_8">
     <g id="line2d_8">
      <g>
       <use xlink:href="#m2ac781463f" x="600.900906" y="332.64" style="stroke: #000000; stroke-width: 0.8"/>
      </g>
     </g>
     <g id="text_8">
      <!-- Sep -->
      <g transform="translate(591.600906 347.369687) scale(0.1 -0.1)">
       <defs>
        <path id="MonaspiceXeNFM-Regular-53" d="M 1776 -77 
C 2954 -77 3558 483 3558 1293 
C 3562 2038 3059 2384 2221 2662 
C 1469 2918 1149 3152 1149 3600 
C 1149 4102 1520 4333 2048 4333 
C 2586 4333 2880 4083 3037 3645 
L 3114 3424 
L 3469 3510 
L 3251 4525 
C 2950 4646 2586 4749 2122 4749 
C 1171 4749 547 4323 547 3510 
C 547 2787 1046 2368 1776 2138 
C 2563 1885 2938 1664 2938 1181 
C 2938 678 2550 342 1872 342 
C 1286 342 973 586 822 1030 
L 742 1258 
L 368 1171 
L 582 160 
C 874 32 1248 -77 1776 -77 
z
" transform="scale(0.015625)"/>
       </defs>
       <use xlink:href="#MonaspiceXeNFM-Regular-53"/>
       <use xlink:href="#MonaspiceXeNFM-Regular-65" x="62.000015"/>
       <use xlink:href="#MonaspiceXeNFM-Regular-70" x="124.000031"/>
      </g>
     </g>
    </g>
    <g id="xtick_9">
     <g id="line2d_9">
      <g>
       <use xlink:href="#m2ac781463f" x="674.835392" y="332.64" style="stroke: #000000; stroke-width: 0.8"/>
      </g>
     </g>
     <g id="text_9">
      <!-- Oct -->
      <g transform="translate(665.535392 347.369687) scale(0.1 -0.1)">
       <defs>
        <path id="MonaspiceXeNFM-Regular-4f" d="M 1984 -74 
C 2931 -74 3677 755 3677 2349 
C 3677 3933 2931 4749 1984 4749 
C 1037 4749 291 3933 291 2349 
C 291 755 1037 -74 1984 -74 
z
M 950 2339 
C 950 3741 1398 4298 1984 4298 
C 2573 4298 3018 3741 3018 2339 
C 3018 918 2573 378 1984 378 
C 1398 378 950 934 950 2339 
z
" transform="scale(0.015625)"/>
        <path id="MonaspiceXeNFM-Regular-63" d="M 2134 -77 
C 2557 -77 2960 22 3306 163 
L 3488 1091 
L 3123 1178 
L 3066 1021 
C 2909 576 2592 336 2115 336 
C 1498 336 1018 749 1018 1658 
C 1018 2563 1498 2976 2115 2976 
C 2592 2976 2909 2736 3066 2291 
L 3123 2134 
L 3488 2224 
L 3306 3149 
C 2986 3290 2605 3389 2182 3389 
C 1114 3389 384 2781 384 1658 
C 384 534 1062 -77 2134 -77 
z
" transform="scale(0.015625)"/>
        <path id="MonaspiceXeNFM-Regular-74" d="M 2269 -77 
C 2634 -77 3008 10 3302 122 
L 3517 1069 
L 3203 1149 
L 3123 950 
C 2963 554 2707 342 2339 339 
C 1958 336 1818 582 1818 966 
L 1818 2774 
L 3338 2774 
L 3427 3219 
L 1824 3219 
L 1824 4291 
L 1581 4291 
L 1200 3290 
L 294 3050 
L 294 2774 
L 1222 2774 
L 1222 915 
C 1222 288 1485 -74 2269 -77 
z
" transform="scale(0.015625)"/>
       </defs>
       <use xlink:href="#MonaspiceXeNFM-Regular-4f"/>
       <use xlink:href="#MonaspiceXeNFM-Regular-63" x="62.000015"/>
       <use xlink:href="#MonaspiceXeNFM-Regular-74" x="124.000031"/>
      </g>
     </g>
    </g>
    <g id="text_10">
     <!-- 2024 -->
     <g transform="translate(690.329688 360.099375) scale(0.1 -0.1)">
      <defs>
       <path id="MonaspiceXeNFM-Regular-32" d="M 403 394 
L 403 0 
L 3347 0 
L 3539 1325 
L 3200 1325 
L 2896 499 
L 938 499 
C 1014 1069 1277 1382 1952 1760 
C 2560 2102 3437 2522 3437 3498 
C 3437 4336 2794 4749 1834 4749 
C 1379 4749 992 4646 691 4525 
L 477 3382 
L 829 3296 
L 896 3517 
C 1069 4083 1370 4333 1866 4333 
C 2342 4333 2826 4109 2826 3485 
C 2826 2893 2368 2534 1773 2195 
C 826 1658 403 1171 403 394 
z
" transform="scale(0.015625)"/>
       <path id="MonaspiceXeNFM-Regular-30" d="M 1984 -74 
C 2992 -74 3670 682 3670 2339 
C 3670 4022 2992 4749 1984 4749 
C 976 4749 298 4022 298 2339 
C 298 682 976 -74 1984 -74 
z
M 944 2339 
C 944 3757 1322 4339 1984 4339 
C 2650 4339 3024 3757 3024 2339 
C 3024 918 2650 336 1984 336 
C 1322 336 944 918 944 2339 
z
M 1629 2330 
C 1629 2019 1757 1834 1984 1834 
C 2214 1834 2342 2019 2342 2330 
C 2342 2646 2214 2826 1984 2826 
C 1757 2826 1629 2646 1629 2330 
z
" transform="scale(0.015625)"/>
       <path id="MonaspiceXeNFM-Regular-34" d="M 1808 0 
L 3494 0 
L 3494 307 
L 3046 518 
L 3046 1334 
L 3478 1334 
L 3552 1770 
L 3046 1770 
L 3046 4675 
L 2438 4672 
L 352 1754 
L 352 1334 
L 2483 1334 
L 2483 534 
L 1808 307 
L 1808 0 
z
M 909 1770 
L 2483 3958 
L 2483 1770 
L 909 1770 
z
" transform="scale(0.015625)"/>
      </defs>
      <use xlink:href="#MonaspiceXeNFM-Regular-32"/>
      <use xlink:href="#MonaspiceXeNFM-Regular-30" x="62.000015"/>
      <use xlink:href="#MonaspiceXeNFM-Regular-32" x="124.000031"/>
      <use xlink:href="#MonaspiceXeNFM-Regular-34" x="186.000046"/>
     </g>
    </g>
   </g>
   <g id="matplotlib.axis_2">
    <g id="ytick_1">
     <g id="line2d_10">
      <defs>
       <path id="m805d214b5c" d="M 0 0 
L -3.5 0 
" style="stroke: #000000; stroke-width: 0.8"/>
      </defs>
      <g>
       <use xlink:href="#m805d214b5c" x="45.529688" y="317.761872" style="stroke: #000000; stroke-width: 0.8"/>
      </g>
     </g>
     <g id="text_11">
      <!-- 0 -->
      <g transform="translate(32.329688 321.626715) scale(0.1 -0.1)">
       <use xlink:href="#MonaspiceXeNFM-Regular-30"/>
      </g>
     </g>
    </g>
    <g id="ytick_2">
     <g id="line2d_11">
      <g>
       <use xlink:href="#m805d214b5c" x="45.529688" y="257.293965" style="stroke: #000000; stroke-width: 0.8"/>
      </g>
     </g>
     <g id="text_12">
      <!-- 1000 -->
      <g transform="translate(13.729688 261.158809) scale(0.1 -0.1)">
       <defs>
        <path id="MonaspiceXeNFM-Regular-31" d="M 496 0 
L 3549 0 
L 3549 307 
L 2336 576 
L 2336 4672 
L 1917 4672 
L 496 3942 
L 496 3574 
L 1782 4042 
L 1782 576 
L 496 307 
L 496 0 
z
" transform="scale(0.015625)"/>
       </defs>
       <use xlink:href="#MonaspiceXeNFM-Regular-31"/>
       <use xlink:href="#MonaspiceXeNFM-Regular-30" x="62.000015"/>
       <use xlink:href="#MonaspiceXeNFM-Regular-30" x="124.000031"/>
       <use xlink:href="#MonaspiceXeNFM-Regular-30" x="186.000046"/>
      </g>
     </g>
    </g>
    <g id="ytick_3">
     <g id="line2d_12">
      <g>
       <use xlink:href="#m805d214b5c" x="45.529688" y="196.826059" style="stroke: #000000; stroke-width: 0.8"/>
      </g>
     </g>
     <g id="text_13">
      <!-- 2000 -->
      <g transform="translate(13.729688 200.690903) scale(0.1 -0.1)">
       <use xlink:href="#MonaspiceXeNFM-Regular-32"/>
       <use xlink:href="#MonaspiceXeNFM-Regular-30" x="62.000015"/>
       <use xlink:href="#MonaspiceXeNFM-Regular-30" x="124.000031"/>
       <use xlink:href="#MonaspiceXeNFM-Regular-30" x="186.000046"/>
      </g>
     </g>
    </g>
    <g id="ytick_4">
     <g id="line2d_13">
      <g>
       <use xlink:href="#m805d214b5c" x="45.529688" y="136.358152" style="stroke: #000000; stroke-width: 0.8"/>
      </g>
     </g>
     <g id="text_14">
      <!-- 3000 -->
      <g transform="translate(13.729688 140.222996) scale(0.1 -0.1)">
       <defs>
        <path id="MonaspiceXeNFM-Regular-33" d="M 1811 -74 
C 3005 -74 3565 528 3565 1267 
C 3565 2067 2918 2365 2477 2397 
L 2477 2442 
C 2870 2464 3373 2858 3373 3549 
C 3373 4339 2784 4749 1856 4749 
C 1408 4749 1002 4646 678 4525 
L 464 3510 
L 816 3424 
L 896 3645 
C 1050 4083 1366 4333 1866 4333 
C 2358 4333 2781 4083 2781 3552 
C 2781 3014 2323 2605 1498 2605 
L 1498 2173 
C 2202 2173 2954 1968 2954 1216 
C 2954 650 2522 342 1894 342 
C 1306 342 976 586 822 1030 
L 742 1258 
L 368 1171 
L 582 160 
C 874 32 1293 -74 1811 -74 
z
" transform="scale(0.015625)"/>
       </defs>
       <use xlink:href="#MonaspiceXeNFM-Regular-33"/>
       <use xlink:href="#MonaspiceXeNFM-Regular-30" x="62.000015"/>
       <use xlink:href="#MonaspiceXeNFM-Regular-30" x="124.000031"/>
       <use xlink:href="#MonaspiceXeNFM-Regular-30" x="186.000046"/>
      </g>
     </g>
    </g>
    <g id="ytick_5">
     <g id="line2d_14">
      <g>
       <use xlink:href="#m805d214b5c" x="45.529688" y="75.890246" style="stroke: #000000; stroke-width: 0.8"/>
      </g>
     </g>
     <g id="text_15">
      <!-- 4000 -->
      <g transform="translate(13.729688 79.75509) scale(0.1 -0.1)">
       <use xlink:href="#MonaspiceXeNFM-Regular-34"/>
       <use xlink:href="#MonaspiceXeNFM-Regular-30" x="62.000015"/>
       <use xlink:href="#MonaspiceXeNFM-Regular-30" x="124.000031"/>
       <use xlink:href="#MonaspiceXeNFM-Regular-30" x="186.000046"/>
      </g>
     </g>
    </g>
    <g id="ytick_6">
     <g id="line2d_15">
      <g>
       <use xlink:href="#m805d214b5c" x="45.529688" y="15.42234" style="stroke: #000000; stroke-width: 0.8"/>
      </g>
     </g>
     <g id="text_16">
      <!-- 5000 -->
      <g transform="translate(13.729688 19.287183) scale(0.1 -0.1)">
       <defs>
        <path id="MonaspiceXeNFM-Regular-35" d="M 1782 -77 
C 2893 -77 3565 541 3565 1443 
C 3565 2301 2982 2902 2013 2902 
C 1677 2902 1328 2829 1037 2685 
L 1222 4195 
L 2720 4195 
L 2995 3517 
L 3334 3517 
L 3142 4672 
L 781 4672 
L 493 2310 
L 838 2138 
C 1117 2336 1520 2490 1910 2490 
C 2650 2490 2954 1962 2954 1418 
C 2954 720 2448 342 1798 342 
C 1264 342 976 586 822 1030 
L 742 1258 
L 368 1171 
L 582 160 
C 874 32 1283 -77 1782 -77 
z
" transform="scale(0.015625)"/>
       </defs>
       <use xlink:href="#MonaspiceXeNFM-Regular-35"/>
       <use xlink:href="#MonaspiceXeNFM-Regular-30" x="62.000015"/>
       <use xlink:href="#MonaspiceXeNFM-Regular-30" x="124.000031"/>
       <use xlink:href="#MonaspiceXeNFM-Regular-30" x="186.000046"/>
      </g>
     </g>
    </g>
    <g id="text_17">
     <!-- Number of lost items -->
     <g transform="translate(7.729688 228.32) rotate(-90) scale(0.1 -0.1)">
      <defs>
       <path id="MonaspiceXeNFM-Regular-4e" d="M 186 0 
L 1510 0 
L 1510 323 
L 1091 493 
L 1091 3459 
L 1130 3459 
L 2883 0 
L 3350 0 
L 3350 4176 
L 3782 4352 
L 3782 4675 
L 2458 4675 
L 2458 4352 
L 2877 4170 
L 2877 1341 
L 2838 1341 
L 1174 4672 
L 186 4672 
L 186 4349 
L 618 4173 
L 618 499 
L 186 323 
L 186 0 
z
" transform="scale(0.015625)"/>
       <path id="MonaspiceXeNFM-Regular-6d" d="M 1766 2563 
L 1766 0 
L 2602 0 
L 2602 323 
L 2310 477 
L 2310 2682 
C 2310 2726 2307 2771 2304 2813 
C 2435 2880 2570 2925 2688 2925 
C 2877 2925 2941 2845 2941 2563 
L 2941 0 
L 3779 0 
L 3779 323 
L 3482 477 
L 3482 2707 
C 3482 3165 3299 3389 2963 3389 
C 2698 3389 2451 3251 2253 3059 
C 2173 3274 2013 3389 1776 3389 
C 1523 3389 1283 3254 1085 3062 
L 1085 3338 
L 998 3373 
L 189 3149 
L 189 2858 
L 630 2749 
L 630 486 
L 310 323 
L 310 0 
L 1446 0 
L 1446 323 
L 1171 474 
L 1171 2832 
C 1290 2886 1411 2925 1517 2925 
C 1702 2925 1766 2845 1766 2563 
z
" transform="scale(0.015625)"/>
       <path id="MonaspiceXeNFM-Regular-20" transform="scale(0.015625)"/>
       <path id="MonaspiceXeNFM-Regular-6f" d="M 1984 -77 
C 2874 -77 3616 560 3616 1658 
C 3616 2752 2874 3389 1984 3389 
C 1094 3389 352 2752 352 1658 
C 352 560 1094 -77 1984 -77 
z
M 989 1661 
C 989 2557 1430 2947 1984 2947 
C 2538 2947 2979 2557 2979 1661 
C 2979 768 2538 378 1984 378 
C 1430 378 989 768 989 1661 
z
" transform="scale(0.015625)"/>
       <path id="MonaspiceXeNFM-Regular-66" d="M 704 0 
L 2947 0 
L 2947 323 
L 2032 531 
L 2032 2774 
L 3443 2774 
L 3533 3219 
L 2035 3219 
L 2038 3622 
C 2042 4266 2390 4557 2864 4557 
C 3264 4557 3494 4371 3645 3917 
L 3680 3814 
L 4019 3888 
L 3846 4835 
C 3587 4931 3315 4973 3059 4973 
C 2208 4973 1437 4499 1437 3462 
L 1437 3286 
L 253 3030 
L 253 2774 
L 1437 2774 
L 1437 528 
L 704 323 
L 704 0 
z
" transform="scale(0.015625)"/>
       <path id="MonaspiceXeNFM-Regular-73" d="M 1891 -74 
C 2970 -74 3475 352 3475 970 
C 3475 1520 3062 1782 2160 1965 
C 1526 2093 1261 2246 1261 2525 
C 1261 2838 1590 2992 2080 2989 
C 2589 2986 2886 2832 2998 2518 
L 3066 2333 
L 3421 2419 
L 3274 3194 
C 2915 3322 2554 3389 2154 3389 
C 1216 3389 659 3030 659 2400 
C 659 1872 1050 1581 1821 1418 
C 2573 1258 2864 1158 2864 829 
C 2864 512 2592 323 1962 326 
C 1418 330 1062 480 934 845 
L 870 1027 
L 512 941 
L 675 134 
C 989 19 1389 -74 1891 -74 
z
" transform="scale(0.015625)"/>
       <path id="MonaspiceXeNFM-Regular-69" d="M 502 0 
L 3603 0 
L 3603 323 
L 2352 573 
L 2352 3334 
L 2269 3373 
L 506 3117 
L 506 2794 
L 1757 2662 
L 1757 573 
L 502 323 
L 502 0 
z
M 1491 4528 
C 1491 4272 1674 4115 1936 4115 
C 2202 4115 2384 4272 2384 4528 
C 2384 4784 2202 4938 1936 4938 
C 1674 4938 1491 4784 1491 4528 
z
" transform="scale(0.015625)"/>
      </defs>
      <use xlink:href="#MonaspiceXeNFM-Regular-4e"/>
      <use xlink:href="#MonaspiceXeNFM-Regular-75" x="62.000015"/>
      <use xlink:href="#MonaspiceXeNFM-Regular-6d" x="124.000031"/>
      <use xlink:href="#MonaspiceXeNFM-Regular-62" x="186.000046"/>
      <use xlink:href="#MonaspiceXeNFM-Regular-65" x="248.000061"/>
      <use xlink:href="#MonaspiceXeNFM-Regular-72" x="310.000076"/>
      <use xlink:href="#MonaspiceXeNFM-Regular-20" x="372.000092"/>
      <use xlink:href="#MonaspiceXeNFM-Regular-6f" x="434.000107"/>
      <use xlink:href="#MonaspiceXeNFM-Regular-66" x="496.000122"/>
      <use xlink:href="#MonaspiceXeNFM-Regular-20" x="558.000137"/>
      <use xlink:href="#MonaspiceXeNFM-Regular-6c" x="620.000153"/>
      <use xlink:href="#MonaspiceXeNFM-Regular-6f" x="682.000168"/>
      <use xlink:href="#MonaspiceXeNFM-Regular-73" x="744.000183"/>
      <use xlink:href="#MonaspiceXeNFM-Regular-74" x="806.000198"/>
      <use xlink:href="#MonaspiceXeNFM-Regular-20" x="868.000214"/>
      <use xlink:href="#MonaspiceXeNFM-Regular-69" x="930.000229"/>
      <use xlink:href="#MonaspiceXeNFM-Regular-74" x="992.000244"/>
      <use xlink:href="#MonaspiceXeNFM-Regular-65" x="1054.000259"/>
      <use xlink:href="#MonaspiceXeNFM-Regular-6d" x="1116.000275"/>
      <use xlink:href="#MonaspiceXeNFM-Regular-73" x="1178.00029"/>
     </g>
    </g>
   </g>
   <g id="line2d_16">
    <path d="M 75.966051 317.52 
L 90.752948 316.733917 
L 95.681914 316.189706 
L 103.075363 315.645495 
L 105.539846 315.585027 
L 115.397777 314.557073 
L 117.86226 314.073329 
L 120.326743 313.77099 
L 125.255709 313.46865 
L 127.720192 313.105843 
L 132.649158 312.803503 
L 135.11364 312.380228 
L 137.578123 312.077888 
L 140.042606 311.896485 
L 142.507089 311.594145 
L 147.436055 311.291806 
L 149.900538 310.808062 
L 152.365021 310.445255 
L 154.829503 310.263851 
L 159.758469 310.02198 
L 162.222952 309.71964 
L 167.151918 308.812621 
L 169.616401 308.631218 
L 174.545367 308.026539 
L 177.009849 307.845135 
L 179.474332 307.300924 
L 184.403298 306.575309 
L 186.867781 305.66829 
L 189.332264 305.486887 
L 196.725713 304.398464 
L 204.119161 303.007702 
L 209.048127 302.342555 
L 211.51261 302.282088 
L 216.441576 301.616941 
L 223.835024 300.649454 
L 226.299507 300.226179 
L 231.228473 299.742436 
L 236.157439 298.593545 
L 246.01537 296.900444 
L 248.479853 296.779508 
L 250.944336 296.416701 
L 253.408819 295.812022 
L 255.873302 295.691086 
L 258.337785 295.328278 
L 260.802268 294.844535 
L 263.26675 294.481728 
L 265.731233 294.360792 
L 278.053648 292.849094 
L 280.518131 291.942076 
L 282.982614 291.276929 
L 285.447096 290.914121 
L 287.911579 289.462891 
L 290.376062 288.616341 
L 295.305028 285.895285 
L 297.769511 285.592945 
L 300.233994 284.927798 
L 305.162959 284.02078 
L 307.627442 283.174229 
L 310.091925 282.509082 
L 312.556408 282.085807 
L 315.020891 281.843935 
L 317.485374 281.42066 
L 319.949857 280.695045 
L 322.41434 280.574109 
L 324.878823 280.150834 
L 329.807788 279.667091 
L 339.66572 277.006503 
L 342.130203 276.583227 
L 344.594686 276.280888 
L 349.523651 275.373869 
L 351.988134 274.648254 
L 356.9171 273.983107 
L 366.775032 272.592346 
L 369.239515 271.866731 
L 374.16848 270.778308 
L 376.632963 270.052693 
L 379.097446 269.085207 
L 381.561929 268.7224 
L 384.026412 267.936317 
L 386.490895 267.392106 
L 388.955378 267.089766 
L 391.41986 265.759472 
L 396.348826 264.429178 
L 398.813309 264.066371 
L 401.277792 263.824499 
L 403.742275 263.340756 
L 406.206758 262.554673 
L 408.671241 261.889526 
L 411.135724 260.92204 
L 413.600206 260.498764 
L 420.993655 258.503323 
L 428.387104 255.600864 
L 430.851587 254.331038 
L 433.31607 253.363551 
L 438.245035 250.884367 
L 440.709518 248.888926 
L 443.174001 247.981908 
L 445.638484 246.893485 
L 448.102967 245.079448 
L 457.960898 240.12108 
L 460.425381 238.246575 
L 467.81883 235.041776 
L 470.283313 233.227738 
L 472.747796 231.716041 
L 475.212279 230.567151 
L 477.676761 228.753113 
L 480.141244 226.576269 
L 482.605727 224.943635 
L 485.07021 223.915681 
L 487.534693 222.343515 
L 489.999176 221.073689 
L 492.463659 219.380588 
L 494.928142 218.110762 
L 497.392625 216.296725 
L 502.32159 210.975549 
L 504.786073 208.738236 
L 507.250556 206.863731 
L 517.108488 194.649214 
L 519.572971 192.47237 
L 522.037453 189.690846 
L 524.501936 187.27213 
L 526.966419 185.095285 
L 529.430902 181.648614 
L 531.895385 177.899604 
L 536.824351 172.759832 
L 539.288834 170.703923 
L 541.753317 168.345675 
L 544.217799 165.806023 
L 546.682282 162.72216 
L 549.146765 160.242975 
L 551.611248 156.977708 
L 554.075731 154.438056 
L 556.540214 152.32168 
L 559.004697 149.540156 
L 563.933662 145.36787 
L 566.398145 142.949154 
L 568.862628 140.046695 
L 571.327111 137.809382 
L 573.791594 136.055813 
L 576.256077 133.516161 
L 578.72056 130.674169 
L 583.649526 123.659892 
L 586.114008 121.241176 
L 588.578491 119.608542 
L 593.507457 114.045495 
L 595.97194 111.747714 
L 598.436423 108.784787 
L 600.900906 106.124199 
L 603.365389 104.37063 
L 608.294354 99.230858 
L 610.758837 96.207463 
L 615.687803 90.886287 
L 618.152286 88.951314 
L 623.081252 83.992945 
L 625.545735 82.239376 
L 628.010217 79.760192 
L 630.4747 75.829778 
L 632.939183 73.411062 
L 635.403666 70.327199 
L 637.868149 67.424739 
L 640.332632 65.913041 
L 642.797115 62.647774 
L 645.261598 60.289526 
L 647.726081 57.205663 
L 652.655046 52.005423 
L 657.584012 46.502843 
L 660.048495 43.237576 
L 662.512978 40.576989 
L 664.977461 37.06985 
L 667.441944 33.078968 
L 669.906427 30.478848 
L 672.370909 26.850774 
L 674.835392 24.673929 
L 677.299875 22.194745 
L 679.764358 19.957433 
L 682.228841 15.845615 
L 684.693324 15.12 
L 684.693324 15.12 
" clip-path="url(#p999db416f5)" style="fill: none; stroke: #1f77b4; stroke-width: 3; stroke-linecap: square"/>
   </g>
   <g id="patch_3">
    <path d="M 45.529688 332.64 
L 45.529688 0 
" style="fill: none; stroke: #000000; stroke-width: 0.8; stroke-linejoin: miter; stroke-linecap: square"/>
   </g>
   <g id="patch_4">
    <path d="M 45.529687 332.64 
L 715.129688 332.64 
" style="fill: none; stroke: #000000; stroke-width: 0.8; stroke-linejoin: miter; stroke-linecap: square"/>
   </g>
  </g>
 </g>
 <defs>
  <clipPath id="p999db416f5">
   <rect x="45.529688" y="0" width="669.6" height="332.64"/>
  </clipPath>
 </defs>
</svg>
